<?xml version="1.0" encoding="UTF-8"?>
<svg xmlns="http://www.w3.org/2000/svg" xmlns:xlink="http://www.w3.org/1999/xlink" width="52px" height="52px" viewBox="0 0 52 52" version="1.1">
<defs>
<clipPath id="clip1">
  <path d="M 18 8 L 24 8 L 24 22 L 18 22 Z M 18 8 "/>
</clipPath>
<clipPath id="clip2">
  <path d="M 51.882812 25.941406 C 51.882812 40.269531 40.269531 51.882812 25.941406 51.882812 C 11.613281 51.882812 0 40.269531 0 25.941406 C 0 11.613281 11.613281 0 25.941406 0 C 40.269531 0 51.882812 11.613281 51.882812 25.941406 Z M 51.882812 25.941406 "/>
</clipPath>
<clipPath id="clip3">
  <path d="M 19 4 L 34 4 L 34 22 L 19 22 Z M 19 4 "/>
</clipPath>
<clipPath id="clip4">
  <path d="M 51.882812 25.941406 C 51.882812 40.269531 40.269531 51.882812 25.941406 51.882812 C 11.613281 51.882812 0 40.269531 0 25.941406 C 0 11.613281 11.613281 0 25.941406 0 C 40.269531 0 51.882812 11.613281 51.882812 25.941406 Z M 51.882812 25.941406 "/>
</clipPath>
<clipPath id="clip5">
  <path d="M 38 32 L 47 32 L 47 52 L 38 52 Z M 38 32 "/>
</clipPath>
<clipPath id="clip6">
  <path d="M 51.882812 25.941406 C 51.882812 40.269531 40.269531 51.882812 25.941406 51.882812 C 11.613281 51.882812 0 40.269531 0 25.941406 C 0 11.613281 11.613281 0 25.941406 0 C 40.269531 0 51.882812 11.613281 51.882812 25.941406 Z M 51.882812 25.941406 "/>
</clipPath>
<linearGradient id="linear0" gradientUnits="userSpaceOnUse" x1="0.03" y1="0.493" x2="0.353" y2="0.5" gradientTransform="matrix(8.734375,0,0,33.867187,38.078125,32.332031)">
<stop offset="0" style="stop-color:rgb(75.686275%,75.686275%,77.647059%);stop-opacity:1;"/>
<stop offset="1" style="stop-color:rgb(86.666667%,86.666667%,86.666667%);stop-opacity:1;"/>
</linearGradient>
<clipPath id="clip7">
  <path d="M 4 32 L 14 32 L 14 52 L 4 52 Z M 4 32 "/>
</clipPath>
<clipPath id="clip8">
  <path d="M 51.882812 25.941406 C 51.882812 40.269531 40.269531 51.882812 25.941406 51.882812 C 11.613281 51.882812 0 40.269531 0 25.941406 C 0 11.613281 11.613281 0 25.941406 0 C 40.269531 0 51.882812 11.613281 51.882812 25.941406 Z M 51.882812 25.941406 "/>
</clipPath>
<linearGradient id="linear1" gradientUnits="userSpaceOnUse" x1="0.799" y1="0.5" x2="0.658" y2="0.5" gradientTransform="matrix(8.730469,0,0,33.867187,4.757813,32.332031)">
<stop offset="0" style="stop-color:rgb(75.686275%,75.686275%,77.647059%);stop-opacity:1;"/>
<stop offset="1" style="stop-color:rgb(86.666667%,86.666667%,86.666667%);stop-opacity:1;"/>
</linearGradient>
<clipPath id="clip9">
  <path d="M 10 29 L 42 29 L 42 52 L 10 52 Z M 10 29 "/>
</clipPath>
<clipPath id="clip10">
  <path d="M 51.882812 25.941406 C 51.882812 40.269531 40.269531 51.882812 25.941406 51.882812 C 11.613281 51.882812 0 40.269531 0 25.941406 C 0 11.613281 11.613281 0 25.941406 0 C 40.269531 0 51.882812 11.613281 51.882812 25.941406 Z M 51.882812 25.941406 "/>
</clipPath>
<clipPath id="clip11">
  <path d="M 19 27 L 33 27 L 33 33 L 19 33 Z M 19 27 "/>
</clipPath>
<clipPath id="clip12">
  <path d="M 51.882812 25.941406 C 51.882812 40.269531 40.269531 51.882812 25.941406 51.882812 C 11.613281 51.882812 0 40.269531 0 25.941406 C 0 11.613281 11.613281 0 25.941406 0 C 40.269531 0 51.882812 11.613281 51.882812 25.941406 Z M 51.882812 25.941406 "/>
</clipPath>
<clipPath id="clip13">
  <path d="M 24 29 L 27 29 L 27 33 L 24 33 Z M 24 29 "/>
</clipPath>
<clipPath id="clip14">
  <path d="M 51.882812 25.941406 C 51.882812 40.269531 40.269531 51.882812 25.941406 51.882812 C 11.613281 51.882812 0 40.269531 0 25.941406 C 0 11.613281 11.613281 0 25.941406 0 C 40.269531 0 51.882812 11.613281 51.882812 25.941406 Z M 51.882812 25.941406 "/>
</clipPath>
<clipPath id="clip15">
  <path d="M 20 20 L 32 20 L 32 32 L 20 32 Z M 20 20 "/>
</clipPath>
<clipPath id="clip16">
  <path d="M 51.882812 25.941406 C 51.882812 40.269531 40.269531 51.882812 25.941406 51.882812 C 11.613281 51.882812 0 40.269531 0 25.941406 C 0 11.613281 11.613281 0 25.941406 0 C 40.269531 0 51.882812 11.613281 51.882812 25.941406 Z M 51.882812 25.941406 "/>
</clipPath>
<clipPath id="clip17">
  <path d="M 23 20 L 30 20 L 30 26 L 23 26 Z M 23 20 "/>
</clipPath>
<clipPath id="clip18">
  <path d="M 51.882812 25.941406 C 51.882812 40.269531 40.269531 51.882812 25.941406 51.882812 C 11.613281 51.882812 0 40.269531 0 25.941406 C 0 11.613281 11.613281 0 25.941406 0 C 40.269531 0 51.882812 11.613281 51.882812 25.941406 Z M 51.882812 25.941406 "/>
</clipPath>
<clipPath id="clip19">
  <path d="M 29 15 L 33 15 L 33 19 L 29 19 Z M 29 15 "/>
</clipPath>
<clipPath id="clip20">
  <path d="M 51.882812 25.941406 C 51.882812 40.269531 40.269531 51.882812 25.941406 51.882812 C 11.613281 51.882812 0 40.269531 0 25.941406 C 0 11.613281 11.613281 0 25.941406 0 C 40.269531 0 51.882812 11.613281 51.882812 25.941406 Z M 51.882812 25.941406 "/>
</clipPath>
<clipPath id="clip21">
  <path d="M 19 15 L 22 15 L 22 19 L 19 19 Z M 19 15 "/>
</clipPath>
<clipPath id="clip22">
  <path d="M 51.882812 25.941406 C 51.882812 40.269531 40.269531 51.882812 25.941406 51.882812 C 11.613281 51.882812 0 40.269531 0 25.941406 C 0 11.613281 11.613281 0 25.941406 0 C 40.269531 0 51.882812 11.613281 51.882812 25.941406 Z M 51.882812 25.941406 "/>
</clipPath>
<clipPath id="clip23">
  <path d="M 20 9 L 32 9 L 32 24 L 20 24 Z M 20 9 "/>
</clipPath>
<clipPath id="clip24">
  <path d="M 51.882812 25.941406 C 51.882812 40.269531 40.269531 51.882812 25.941406 51.882812 C 11.613281 51.882812 0 40.269531 0 25.941406 C 0 11.613281 11.613281 0 25.941406 0 C 40.269531 0 51.882812 11.613281 51.882812 25.941406 Z M 51.882812 25.941406 "/>
</clipPath>
<clipPath id="clip25">
  <path d="M 27 15 L 29 15 L 29 17 L 27 17 Z M 27 15 "/>
</clipPath>
<clipPath id="clip26">
  <path d="M 51.882812 25.941406 C 51.882812 40.269531 40.269531 51.882812 25.941406 51.882812 C 11.613281 51.882812 0 40.269531 0 25.941406 C 0 11.613281 11.613281 0 25.941406 0 C 40.269531 0 51.882812 11.613281 51.882812 25.941406 Z M 51.882812 25.941406 "/>
</clipPath>
<clipPath id="clip27">
  <path d="M 26 13 L 30 13 L 30 15 L 26 15 Z M 26 13 "/>
</clipPath>
<clipPath id="clip28">
  <path d="M 51.882812 25.941406 C 51.882812 40.269531 40.269531 51.882812 25.941406 51.882812 C 11.613281 51.882812 0 40.269531 0 25.941406 C 0 11.613281 11.613281 0 25.941406 0 C 40.269531 0 51.882812 11.613281 51.882812 25.941406 Z M 51.882812 25.941406 "/>
</clipPath>
<clipPath id="clip29">
  <path d="M 23 15 L 25 15 L 25 17 L 23 17 Z M 23 15 "/>
</clipPath>
<clipPath id="clip30">
  <path d="M 51.882812 25.941406 C 51.882812 40.269531 40.269531 51.882812 25.941406 51.882812 C 11.613281 51.882812 0 40.269531 0 25.941406 C 0 11.613281 11.613281 0 25.941406 0 C 40.269531 0 51.882812 11.613281 51.882812 25.941406 Z M 51.882812 25.941406 "/>
</clipPath>
<clipPath id="clip31">
  <path d="M 22 13 L 25 13 L 25 15 L 22 15 Z M 22 13 "/>
</clipPath>
<clipPath id="clip32">
  <path d="M 51.882812 25.941406 C 51.882812 40.269531 40.269531 51.882812 25.941406 51.882812 C 11.613281 51.882812 0 40.269531 0 25.941406 C 0 11.613281 11.613281 0 25.941406 0 C 40.269531 0 51.882812 11.613281 51.882812 25.941406 Z M 51.882812 25.941406 "/>
</clipPath>
<clipPath id="clip33">
  <path d="M 19 7 L 32 7 L 32 17 L 19 17 Z M 19 7 "/>
</clipPath>
<clipPath id="clip34">
  <path d="M 51.882812 25.941406 C 51.882812 40.269531 40.269531 51.882812 25.941406 51.882812 C 11.613281 51.882812 0 40.269531 0 25.941406 C 0 11.613281 11.613281 0 25.941406 0 C 40.269531 0 51.882812 11.613281 51.882812 25.941406 Z M 51.882812 25.941406 "/>
</clipPath>
<clipPath id="clip35">
  <path d="M 25 17 L 26 17 L 26 19 L 25 19 Z M 25 17 "/>
</clipPath>
<clipPath id="clip36">
  <path d="M 51.882812 25.941406 C 51.882812 40.269531 40.269531 51.882812 25.941406 51.882812 C 11.613281 51.882812 0 40.269531 0 25.941406 C 0 11.613281 11.613281 0 25.941406 0 C 40.269531 0 51.882812 11.613281 51.882812 25.941406 Z M 51.882812 25.941406 "/>
</clipPath>
<clipPath id="clip37">
  <path d="M 19 8 L 31 8 L 31 12 L 19 12 Z M 19 8 "/>
</clipPath>
<clipPath id="clip38">
  <path d="M 51.882812 25.941406 C 51.882812 40.269531 40.269531 51.882812 25.941406 51.882812 C 11.613281 51.882812 0 40.269531 0 25.941406 C 0 11.613281 11.613281 0 25.941406 0 C 40.269531 0 51.882812 11.613281 51.882812 25.941406 Z M 51.882812 25.941406 "/>
</clipPath>
<clipPath id="clip39">
  <path d="M 24 19 L 27 19 L 27 20 L 24 20 Z M 24 19 "/>
</clipPath>
<clipPath id="clip40">
  <path d="M 51.882812 25.941406 C 51.882812 40.269531 40.269531 51.882812 25.941406 51.882812 C 11.613281 51.882812 0 40.269531 0 25.941406 C 0 11.613281 11.613281 0 25.941406 0 C 40.269531 0 51.882812 11.613281 51.882812 25.941406 Z M 51.882812 25.941406 "/>
</clipPath>
<clipPath id="clip41">
  <path d="M 25 19 L 26 19 L 26 21 L 25 21 Z M 25 19 "/>
</clipPath>
<clipPath id="clip42">
  <path d="M 51.882812 25.941406 C 51.882812 40.269531 40.269531 51.882812 25.941406 51.882812 C 11.613281 51.882812 0 40.269531 0 25.941406 C 0 11.613281 11.613281 0 25.941406 0 C 40.269531 0 51.882812 11.613281 51.882812 25.941406 Z M 51.882812 25.941406 "/>
</clipPath>
<clipPath id="clip43">
  <path d="M 20 14 L 31 14 L 31 19 L 20 19 Z M 20 14 "/>
</clipPath>
<clipPath id="clip44">
  <path d="M 51.882812 25.941406 C 51.882812 40.269531 40.269531 51.882812 25.941406 51.882812 C 11.613281 51.882812 0 40.269531 0 25.941406 C 0 11.613281 11.613281 0 25.941406 0 C 40.269531 0 51.882812 11.613281 51.882812 25.941406 Z M 51.882812 25.941406 "/>
</clipPath>
</defs>
<g id="surface1">
<path style=" stroke:none;fill-rule:nonzero;fill:rgb(21.176471%,30.980392%,41.960784%);fill-opacity:1;" d="M 51.882812 25.941406 C 51.882812 40.269531 40.269531 51.882812 25.941406 51.882812 C 11.613281 51.882812 0 40.269531 0 25.941406 C 0 11.613281 11.613281 0 25.941406 0 C 40.269531 0 51.882812 11.613281 51.882812 25.941406 Z M 51.882812 25.941406 "/>
<g clip-path="url(#clip1)" clip-rule="nonzero">
<g clip-path="url(#clip2)" clip-rule="nonzero">
<path style=" stroke:none;fill-rule:nonzero;fill:rgb(12.941176%,7.45098%,27.843137%);fill-opacity:1;" d="M 19.492188 8.945312 C 19.492188 8.945312 18.042969 9.554688 18.707031 12.878906 C 19.367188 16.203125 19.941406 20.714844 22.105469 21.066406 C 24.269531 21.417969 22.679688 8.753906 22.679688 8.753906 Z M 19.492188 8.945312 "/>
</g>
</g>
<g clip-path="url(#clip3)" clip-rule="nonzero">
<g clip-path="url(#clip4)" clip-rule="nonzero">
<path style=" stroke:none;fill-rule:nonzero;fill:rgb(12.941176%,7.45098%,27.843137%);fill-opacity:1;" d="M 28.769531 21.289062 C 28.769531 21.289062 31.007812 21.421875 32.074219 17.914062 C 33.140625 14.402344 34.773438 9.105469 31.242188 8.179688 C 31.242188 8.179688 31.871094 6.015625 29.347656 5.441406 C 27 4.820312 24.578125 4.523438 22.148438 4.558594 C 20.984375 4.597656 19.9375 5.269531 19.417969 6.308594 C 18.894531 7.351562 18.988281 8.59375 19.65625 9.546875 C 21.027344 11.667969 28.769531 21.289062 28.769531 21.289062 Z M 28.769531 21.289062 "/>
</g>
</g>
<g clip-path="url(#clip5)" clip-rule="nonzero">
<g clip-path="url(#clip6)" clip-rule="nonzero">
<path style=" stroke:none;fill-rule:nonzero;fill:url(#linear0);" d="M 46.8125 65.089844 L 40.847656 66.199219 L 40.699219 64.945312 L 40.382812 62.25 L 40.253906 61.160156 L 39.777344 57.078125 L 39.648438 55.988281 L 39.40625 53.910156 L 39.171875 51.90625 L 39.042969 50.816406 L 38.566406 46.738281 L 38.4375 45.644531 L 38.078125 42.574219 L 38.386719 41.566406 L 38.800781 40.21875 L 39.339844 38.460938 L 41.222656 32.332031 C 41.222656 32.332031 43.414062 32.804688 44.453125 36.265625 C 44.746094 37.566406 44.949219 38.886719 45.054688 40.21875 C 45.105469 40.644531 45.148438 41.09375 45.195312 41.566406 C 45.320312 42.808594 45.4375 44.191406 45.554688 45.648438 C 45.585938 46.003906 45.613281 46.371094 45.640625 46.738281 C 45.742188 48.070312 45.84375 49.445312 45.941406 50.816406 C 45.96875 51.179688 45.992188 51.546875 46.015625 51.910156 C 46.109375 53.300781 46.199219 54.679688 46.28125 55.988281 C 46.304688 56.355469 46.328125 56.71875 46.347656 57.078125 C 46.441406 58.585938 46.523438 59.976562 46.59375 61.160156 C 46.613281 61.546875 46.636719 61.910156 46.65625 62.25 C 46.753906 64.003906 46.8125 65.089844 46.8125 65.089844 Z M 46.8125 65.089844 "/>
</g>
</g>
<g clip-path="url(#clip7)" clip-rule="nonzero">
<g clip-path="url(#clip8)" clip-rule="nonzero">
<path style=" stroke:none;fill-rule:nonzero;fill:url(#linear1);" d="M 13.488281 42.570312 L 13.125 45.644531 L 13 46.734375 L 12.523438 50.8125 L 12.394531 51.90625 L 12.160156 53.90625 L 11.917969 55.984375 L 11.789062 57.078125 L 11.3125 61.15625 L 11.183594 62.25 L 10.867188 64.945312 L 10.722656 66.199219 L 4.757812 65.089844 C 4.757812 65.089844 4.8125 64.003906 4.910156 62.25 C 4.929688 61.910156 4.949219 61.542969 4.972656 61.15625 C 5.039062 59.972656 5.121094 58.585938 5.214844 57.078125 C 5.234375 56.71875 5.257812 56.355469 5.28125 55.984375 C 5.363281 54.679688 5.453125 53.300781 5.546875 51.90625 C 5.570312 51.542969 5.597656 51.179688 5.621094 50.816406 C 5.71875 49.445312 5.820312 48.066406 5.921875 46.738281 C 5.949219 46.371094 5.980469 46.003906 6.007812 45.644531 C 6.125 44.191406 6.246094 42.808594 6.371094 41.566406 C 6.414062 41.09375 6.460938 40.644531 6.507812 40.214844 C 6.617188 38.886719 6.816406 37.566406 7.109375 36.265625 C 8.148438 32.800781 10.34375 32.332031 10.34375 32.332031 L 12.222656 38.460938 L 12.761719 40.214844 L 13.175781 41.5625 Z M 13.488281 42.570312 "/>
</g>
</g>
<g clip-path="url(#clip9)" clip-rule="nonzero">
<g clip-path="url(#clip10)" clip-rule="nonzero">
<path style=" stroke:none;fill-rule:nonzero;fill:rgb(86.666667%,86.666667%,86.666667%);fill-opacity:1;" d="M 41.222656 32.332031 L 40.445312 41.5625 L 40.101562 45.644531 L 40.011719 46.734375 L 39.667969 50.8125 L 39.578125 51.90625 L 39.234375 55.984375 L 39.140625 57.074219 L 38.796875 61.15625 L 38.707031 62.246094 L 38.363281 66.324219 L 38.273438 67.417969 L 38.003906 70.625 L 13.566406 70.625 L 13.296875 67.417969 L 13.207031 66.324219 L 12.863281 62.246094 L 12.773438 61.15625 L 12.429688 57.074219 L 12.335938 55.984375 L 11.996094 51.90625 L 11.902344 50.8125 L 11.5625 46.734375 L 11.46875 45.644531 L 11.125 41.5625 L 10.351562 32.332031 L 19.496094 29.257812 L 25.789062 32.332031 L 32.078125 29.257812 Z M 41.222656 32.332031 "/>
</g>
</g>
<g clip-path="url(#clip11)" clip-rule="nonzero">
<g clip-path="url(#clip12)" clip-rule="nonzero">
<path style=" stroke:none;fill-rule:nonzero;fill:rgb(75.686275%,75.686275%,77.647059%);fill-opacity:1;" d="M 32.074219 29.257812 L 31.820312 29.554688 C 30.308594 31.316406 28.105469 32.332031 25.785156 32.332031 C 23.464844 32.332031 21.257812 31.316406 19.75 29.554688 L 19.496094 29.257812 C 19.703125 29.089844 19.925781 28.9375 20.152344 28.792969 C 20.804688 28.378906 21.496094 28.027344 22.21875 27.746094 C 24.5 26.8125 27.054688 26.789062 29.351562 27.679688 C 30.082031 27.96875 30.78125 28.339844 31.429688 28.785156 C 31.640625 28.933594 31.855469 29.089844 32.074219 29.257812 Z M 32.074219 29.257812 "/>
</g>
</g>
<g clip-path="url(#clip13)" clip-rule="nonzero">
<g clip-path="url(#clip14)" clip-rule="nonzero">
<path style=" stroke:none;fill-rule:nonzero;fill:rgb(35.686275%,34.509804%,34.117647%);fill-opacity:1;" d="M 24.695312 29.675781 L 26.871094 29.675781 L 26.871094 32.601562 L 24.695312 32.601562 Z M 24.695312 29.675781 "/>
</g>
</g>
<g clip-path="url(#clip15)" clip-rule="nonzero">
<g clip-path="url(#clip16)" clip-rule="nonzero">
<path style=" stroke:none;fill-rule:nonzero;fill:rgb(86.666667%,72.54902%,62.352941%);fill-opacity:1;" d="M 29.351562 25.042969 L 29.351562 20.316406 L 22.214844 20.316406 L 22.214844 25.058594 C 22.214844 26.570312 21.4375 27.976562 20.164062 28.785156 L 20.148438 28.796875 C 21.640625 30.296875 23.671875 31.144531 25.789062 31.140625 C 27.90625 31.140625 29.9375 30.292969 31.425781 28.789062 L 31.328125 28.722656 C 30.09375 27.90625 29.351562 26.523438 29.351562 25.042969 Z M 29.351562 25.042969 "/>
</g>
</g>
<g clip-path="url(#clip17)" clip-rule="nonzero">
<g clip-path="url(#clip18)" clip-rule="nonzero">
<path style=" stroke:none;fill-rule:nonzero;fill:rgb(12.941176%,7.45098%,27.843137%);fill-opacity:1;" d="M 29.351562 20.316406 L 29.351562 25.3125 C 27.265625 25.277344 25.257812 24.519531 23.671875 23.171875 L 24.160156 20.320312 Z M 29.351562 20.316406 "/>
</g>
</g>
<g clip-path="url(#clip19)" clip-rule="nonzero">
<g clip-path="url(#clip20)" clip-rule="nonzero">
<path style=" stroke:none;fill-rule:nonzero;fill:rgb(86.666667%,72.54902%,62.352941%);fill-opacity:1;" d="M 30.960938 16.148438 C 30.960938 16.148438 31.542969 15.347656 32.066406 15.972656 C 32.585938 16.597656 32.253906 19.3125 30.488281 18.4375 C 28.726562 17.558594 30.960938 16.148438 30.960938 16.148438 Z M 30.960938 16.148438 "/>
</g>
</g>
<g clip-path="url(#clip21)" clip-rule="nonzero">
<g clip-path="url(#clip22)" clip-rule="nonzero">
<path style=" stroke:none;fill-rule:nonzero;fill:rgb(86.666667%,72.54902%,62.352941%);fill-opacity:1;" d="M 20.601562 16.148438 C 20.601562 16.148438 20.015625 15.347656 19.496094 15.972656 C 18.972656 16.597656 19.308594 19.3125 21.070312 18.4375 C 22.835938 17.558594 20.601562 16.148438 20.601562 16.148438 Z M 20.601562 16.148438 "/>
</g>
</g>
<g clip-path="url(#clip23)" clip-rule="nonzero">
<g clip-path="url(#clip24)" clip-rule="nonzero">
<path style=" stroke:none;fill-rule:nonzero;fill:rgb(86.666667%,72.54902%,62.352941%);fill-opacity:1;" d="M 31.367188 11.222656 C 31.246094 8.195312 25.78125 9.210938 25.78125 9.210938 C 25.78125 9.210938 20.316406 8.191406 20.191406 11.222656 C 20.070312 14.253906 19.976562 16.902344 21.359375 20.238281 C 22.027344 22.027344 23.59375 23.332031 25.476562 23.664062 C 25.679688 23.695312 25.882812 23.695312 26.082031 23.664062 C 27.964844 23.332031 29.53125 22.027344 30.203125 20.238281 C 31.585938 16.902344 31.488281 14.253906 31.367188 11.222656 Z M 31.367188 11.222656 "/>
</g>
</g>
<g clip-path="url(#clip25)" clip-rule="nonzero">
<g clip-path="url(#clip26)" clip-rule="nonzero">
<path style=" stroke:none;fill-rule:nonzero;fill:rgb(12.941176%,7.45098%,27.843137%);fill-opacity:1;" d="M 28.179688 15.882812 C 28.179688 16.078125 28.023438 16.234375 27.828125 16.234375 C 27.636719 16.234375 27.480469 16.078125 27.480469 15.882812 C 27.480469 15.691406 27.636719 15.535156 27.828125 15.535156 C 28.023438 15.535156 28.179688 15.691406 28.179688 15.882812 Z M 28.179688 15.882812 "/>
</g>
</g>
<g clip-path="url(#clip27)" clip-rule="nonzero">
<g clip-path="url(#clip28)" clip-rule="nonzero">
<path style=" stroke:none;fill-rule:nonzero;fill:rgb(12.941176%,7.45098%,27.843137%);fill-opacity:1;" d="M 29.082031 14 C 28.496094 14.054688 27.902344 14.066406 27.3125 14.039062 C 26.707031 13.980469 26.941406 13.714844 27.082031 13.582031 C 27.21875 13.449219 28.933594 13.554688 29.082031 14 Z M 29.082031 14 "/>
</g>
</g>
<g clip-path="url(#clip29)" clip-rule="nonzero">
<g clip-path="url(#clip30)" clip-rule="nonzero">
<path style=" stroke:none;fill-rule:nonzero;fill:rgb(12.941176%,7.45098%,27.843137%);fill-opacity:1;" d="M 24.066406 15.882812 C 24.066406 16.078125 23.910156 16.234375 23.71875 16.234375 C 23.523438 16.234375 23.367188 16.078125 23.367188 15.882812 C 23.367188 15.691406 23.523438 15.535156 23.71875 15.535156 C 23.910156 15.535156 24.066406 15.691406 24.066406 15.882812 Z M 24.066406 15.882812 "/>
</g>
</g>
<g clip-path="url(#clip31)" clip-rule="nonzero">
<g clip-path="url(#clip32)" clip-rule="nonzero">
<path style=" stroke:none;fill-rule:nonzero;fill:rgb(12.941176%,7.45098%,27.843137%);fill-opacity:1;" d="M 22.398438 14 C 22.988281 14.054688 23.582031 14.066406 24.171875 14.039062 C 24.777344 13.980469 24.542969 13.714844 24.402344 13.582031 C 24.265625 13.449219 22.550781 13.554688 22.398438 14 Z M 22.398438 14 "/>
</g>
</g>
<g clip-path="url(#clip33)" clip-rule="nonzero">
<g clip-path="url(#clip34)" clip-rule="nonzero">
<path style=" stroke:none;fill-rule:nonzero;fill:rgb(12.941176%,7.45098%,27.843137%);fill-opacity:1;" d="M 20.265625 16.113281 L 20.261719 13.71875 C 20.644531 12.71875 20.9375 11.683594 21.132812 10.632812 C 21.199219 10.253906 21.527344 9.980469 21.910156 9.980469 L 29.558594 9.980469 C 29.941406 9.980469 30.265625 10.253906 30.335938 10.628906 C 30.492188 11.488281 30.828125 12.980469 31.316406 13.617188 L 31.246094 16.484375 C 31.609375 15.070312 31.828125 13.625 31.898438 12.164062 C 31.972656 9.972656 30.667969 7.886719 26.082031 7.914062 C 21.496094 7.9375 20.039062 9.1875 19.722656 10.332031 C 19.410156 11.476562 20.265625 16.113281 20.265625 16.113281 Z M 20.265625 16.113281 "/>
</g>
</g>
<g clip-path="url(#clip35)" clip-rule="nonzero">
<g clip-path="url(#clip36)" clip-rule="nonzero">
<path style=" stroke:none;fill-rule:nonzero;fill:rgb(12.941176%,7.45098%,27.843137%);fill-opacity:1;" d="M 25.5 17.574219 C 25.460938 17.851562 25.441406 18.136719 25.4375 18.417969 C 25.613281 18.429688 25.792969 18.429688 25.96875 18.417969 C 25.96875 18.417969 25.46875 18.851562 25.253906 18.527344 C 24.984375 18.109375 25.5 17.574219 25.5 17.574219 Z M 25.5 17.574219 "/>
</g>
</g>
<g clip-path="url(#clip37)" clip-rule="nonzero">
<g clip-path="url(#clip38)" clip-rule="nonzero">
<path style=" stroke:none;fill-rule:nonzero;fill:rgb(12.941176%,7.45098%,27.843137%);fill-opacity:1;" d="M 19.492188 8.945312 C 19.492188 8.945312 20.90625 13.777344 30.289062 9.542969 Z M 19.492188 8.945312 "/>
</g>
</g>
<g clip-path="url(#clip39)" clip-rule="nonzero">
<g clip-path="url(#clip40)" clip-rule="nonzero">
<path style=" stroke:none;fill-rule:nonzero;fill:rgb(12.941176%,7.45098%,27.843137%);fill-opacity:1;" d="M 26.359375 19.726562 L 24.9375 19.726562 C 24.898438 19.726562 24.871094 19.695312 24.871094 19.660156 C 24.871094 19.625 24.898438 19.59375 24.9375 19.59375 L 26.359375 19.59375 C 26.394531 19.59375 26.425781 19.625 26.425781 19.660156 C 26.425781 19.695312 26.394531 19.726562 26.359375 19.726562 Z M 26.359375 19.726562 "/>
</g>
</g>
<g clip-path="url(#clip41)" clip-rule="nonzero">
<g clip-path="url(#clip42)" clip-rule="nonzero">
<path style=" stroke:none;fill-rule:nonzero;fill:rgb(12.941176%,7.45098%,27.843137%);fill-opacity:1;" d="M 25.789062 20.074219 L 25.507812 20.074219 C 25.472656 20.074219 25.441406 20.042969 25.441406 20.007812 C 25.441406 19.972656 25.472656 19.941406 25.507812 19.941406 L 25.789062 19.941406 C 25.824219 19.941406 25.855469 19.972656 25.855469 20.007812 C 25.855469 20.042969 25.824219 20.074219 25.789062 20.074219 Z M 25.789062 20.074219 "/>
</g>
</g>
<g clip-path="url(#clip43)" clip-rule="nonzero">
<g clip-path="url(#clip44)" clip-rule="nonzero">
<path style=" stroke:none;fill-rule:nonzero;fill:rgb(12.941176%,7.45098%,27.843137%);fill-opacity:1;" d="M 29.527344 14.832031 C 28.699219 14.75 27.867188 14.746094 27.042969 14.824219 C 26.726562 14.863281 26.4375 15.011719 26.226562 15.246094 C 26.144531 15.335938 26.027344 15.386719 25.90625 15.386719 L 25.503906 15.386719 C 25.382812 15.386719 25.265625 15.335938 25.183594 15.246094 C 24.972656 15.011719 24.679688 14.863281 24.367188 14.824219 C 23.539062 14.746094 22.707031 14.75 21.878906 14.832031 C 21.324219 14.875 20.894531 15.332031 20.882812 15.886719 C 20.933594 16.367188 20.984375 16.855469 21.035156 17.351562 C 21.160156 18.054688 21.753906 18.582031 22.46875 18.625 C 22.898438 18.648438 23.332031 18.648438 23.761719 18.628906 C 24.449219 18.589844 25.03125 18.105469 25.1875 17.433594 C 25.238281 17.132812 25.292969 16.839844 25.34375 16.546875 C 25.371094 16.371094 25.523438 16.238281 25.703125 16.234375 C 25.882812 16.238281 26.039062 16.371094 26.066406 16.546875 C 26.117188 16.839844 26.167969 17.132812 26.21875 17.433594 C 26.375 18.105469 26.957031 18.589844 27.644531 18.628906 C 28.074219 18.648438 28.503906 18.648438 28.9375 18.625 C 29.652344 18.582031 30.242188 18.054688 30.371094 17.351562 C 30.421875 16.855469 30.472656 16.367188 30.523438 15.886719 C 30.511719 15.332031 30.082031 14.875 29.527344 14.832031 Z M 29.527344 14.832031 "/>
</g>
</g>
</g>
</svg>
